<svg width="80" height="80" viewBox="0 0 80 80" fill="none" xmlns="http://www.w3.org/2000/svg">
<path d="M47.4606 32.7577L64.6 49.487M47.4606 49.487L64.6 32.7577M21.1212 51.1993L26.2 57.3297C28.8454 60.5236 30.1697 62.1205 31.3273 62.298C31.8214 62.3716 32.3265 62.3248 32.7976 62.1618C33.2686 61.9987 33.6911 61.7245 34.0273 61.3635C34.8182 60.5177 34.8182 58.4653 34.8182 54.3547V27.89C34.8182 23.7794 34.8182 21.727 34.0303 20.8812C33.6935 20.5203 33.2704 20.2464 32.7988 20.0838C32.3271 19.9213 31.8216 19.8752 31.3273 19.9497C30.1667 20.1242 28.8424 21.7211 26.2 24.9179L21.1212 31.0484C20.5879 31.6931 20.3212 32.0154 19.9909 32.249C19.6979 32.455 19.3695 32.6083 19.0212 32.7015C18.6273 32.805 18.203 32.805 17.3515 32.805H13.0394C10.7454 32.805 9.59998 32.805 8.67574 33.1037C7.7763 33.393 6.95884 33.8839 6.28893 34.5372C5.61902 35.1904 5.1153 35.9878 4.81817 36.8653C4.51514 37.7673 4.51514 38.8852 4.51514 41.1238C4.51514 43.3595 4.51514 44.4774 4.81817 45.3823C5.1157 46.2593 5.6196 47.0561 6.28949 47.7088C6.95938 48.3615 7.77663 48.852 8.67574 49.141C9.59998 49.4397 10.7454 49.4397 13.0394 49.4397H17.3515C18.2 49.4397 18.6242 49.4397 19.0182 49.5462C19.3662 49.6385 19.6946 49.7907 19.9879 49.9957C20.3212 50.2293 20.5879 50.5546 21.1212 51.1993Z" stroke="black" stroke-width="2.5" stroke-linecap="round" stroke-linejoin="round"/>
</svg>
