<svg width="80" height="80" viewBox="0 0 80 80" fill="none" xmlns="http://www.w3.org/2000/svg">
<path d="M64.0015 14.8313C67.0288 17.5868 69.4456 20.9184 71.1027 24.6206C72.7597 28.3228 73.622 32.3171 73.6362 36.357C73.6504 40.397 72.8162 44.397 71.1852 48.1102C69.5542 51.8234 67.1609 55.1711 64.153 57.9468M55.7376 23.4816C57.5543 25.1349 59.0046 27.134 59.999 29.3555C60.9934 31.577 61.5109 33.9737 61.5194 36.3979C61.5279 38.8221 61.0273 41.2223 60.0485 43.4504C59.0698 45.6785 57.6335 47.6872 55.8285 49.3527M29.6398 46.5343L34.7188 52.6649C37.3643 55.8589 38.6886 57.4588 39.8462 57.6333C40.3401 57.7073 40.845 57.661 41.3161 57.4984C41.7872 57.3359 42.2098 57.0622 42.5463 56.7017C43.3372 55.8559 43.3372 53.8006 43.3372 49.6928V23.2243C43.3372 19.1165 43.3372 17.0641 42.5493 16.2153C42.2125 15.8544 41.7894 15.5805 41.3178 15.4179C40.8461 15.2554 40.3406 15.2093 39.8462 15.2838C38.6856 15.4583 37.3613 17.0582 34.7188 20.2522L29.6368 26.3828C29.1035 27.0304 28.8368 27.3528 28.5065 27.5835C28.2135 27.7895 27.885 27.9427 27.5368 28.036C27.1428 28.1424 26.7186 28.1424 25.867 28.1424H21.5548C19.2608 28.1424 18.1153 28.1424 17.191 28.4382C16.2915 28.7274 15.4741 29.2184 14.8041 29.8717C14.1342 30.525 13.6305 31.3224 13.3333 32.1999C13.0303 33.1049 13.0303 34.2228 13.0303 36.4585C13.0303 38.6943 13.0303 39.8122 13.3333 40.7172C13.6305 41.5947 14.1342 42.3921 14.8041 43.0454C15.4741 43.6987 16.2915 44.1896 17.191 44.4789C18.1153 44.7747 19.2608 44.7747 21.5548 44.7747H25.867C26.7155 44.7747 27.1398 44.7747 27.5337 44.8811C27.882 44.9744 28.2104 45.1276 28.5035 45.3336C28.8368 45.5643 29.1065 45.8896 29.6398 46.5343Z" stroke="black" stroke-width="2.5" stroke-linecap="round" stroke-linejoin="round"/>
</svg>
