<svg width="140" height="140" viewBox="0 0 140 140" fill="none" xmlns="http://www.w3.org/2000/svg">
<g clip-path="url(#clip0_10_5)">
<path d="M132.374 7.62596C124.684 -0.0636516 113.779 -2.20303 105.836 2.42408C95.0479 8.7085 61.1143 -11.2412 24.9364 24.9367C-11.2867 61.1604 8.72892 95.0119 2.42427 105.836C-2.20284 113.78 -0.0640111 124.685 7.6256 132.374C15.3188 140.068 26.2224 142.201 34.1646 137.575C44.9443 131.295 78.8872 151.239 115.063 115.064C151.287 78.8395 131.271 44.9879 137.576 34.1642C142.203 26.2208 140.064 15.3158 132.374 7.62596ZM126.248 27.5579C115.639 45.7713 138.717 72.8487 105.783 105.783C72.8497 138.717 45.7699 115.64 27.5586 126.248C21.3574 129.859 10.0491 118.799 13.752 112.442C24.3613 94.2291 1.28321 67.1517 34.2174 34.2175C67.1488 1.28576 94.2309 24.3595 112.443 13.7518C118.658 10.1315 129.944 21.2133 126.248 27.5579ZM79.8016 29.9467C80.1762 32.9435 78.0505 35.6771 75.0534 36.0517C60.0564 37.9261 37.9263 60.056 36.0516 75.0535C35.6762 78.0583 32.9347 80.176 29.9468 79.8017C26.9497 79.4271 24.824 76.6938 25.1986 73.6969C27.7038 53.6578 53.6818 27.7006 73.6968 25.1987C76.6918 24.8246 79.427 26.9495 79.8016 29.9467Z" fill="#FFF700"/>
</g>
<defs>
<clipPath id="clip0_10_5">
<rect width="140" height="140" fill="white"/>
</clipPath>
</defs>
</svg>
