<svg width="140" height="140" viewBox="0 0 140 140" fill="none" xmlns="http://www.w3.org/2000/svg">
<g clip-path="url(#clip0_10_4)">
<path d="M133.721 6.27893C127.407 -0.035563 118.849 -1.6215 113.189 1.67588C97.0816 11.0581 63.6281 -12.8374 25.3953 25.3955C-12.8376 63.6283 11.0581 97.0815 1.67596 113.188C-1.62143 118.849 -0.0357633 127.407 6.27873 133.721C12.5938 140.036 21.1515 141.621 26.8125 138.324C42.9183 128.942 76.372 152.838 114.605 114.605C152.837 76.3724 128.942 42.9187 138.324 26.8122C141.622 21.1515 140.036 12.5937 133.721 6.27893ZM66.6863 26.1193C50.7752 30.097 30.0981 50.771 26.1196 66.6859C25.6228 68.6738 23.8386 70.0011 21.8783 70.0011C21.5272 70.0011 21.1701 69.9584 20.8138 69.8696C18.4699 69.2833 24.2984 76.0897 24.8841 73.7455C29.6484 54.6888 52.7307 31.5842 71.8174 26.8122C74.1622 26.2262 69.2837 18.4699 69.8694 20.814C70.4551 23.1582 69.0302 25.5333 66.6863 26.1193Z" fill="#FFF700"/>
</g>
<defs>
<clipPath id="clip0_10_4">
<rect width="140" height="140" fill="white"/>
</clipPath>
</defs>
</svg>
