<svg width="30" height="30" viewBox="0 0 30 30" fill="none" xmlns="http://www.w3.org/2000/svg">
<path d="M20.6016 1.58203C20.1739 1.58203 19.7461 1.64121 19.4766 1.73086C19.3594 1.77129 19.2891 1.81523 19.254 1.83926V4.98047H21.9493V4.39453L21.0704 3.51562L21.9493 2.63672V1.83926C21.9141 1.81523 21.8438 1.77129 21.7266 1.73086C21.4571 1.64121 21.0235 1.58203 20.6016 1.58203ZM17.8243 2.96016C15.9962 2.95078 14.4258 3.35859 13.084 4.08984C11.2911 5.06543 9.92584 6.59766 8.82428 8.40234C7.48834 10.5996 6.53326 13.207 5.70299 15.8262C5.7358 15.8262 5.7692 15.832 5.8026 15.832C5.94732 15.8438 6.08795 15.8672 6.23443 15.9141C6.41021 15.9668 6.57428 16.0371 6.72076 16.1309C7.54693 13.5469 8.47271 11.0156 9.72662 8.95312C10.7579 7.25391 12.0059 5.87695 13.5879 5.01621C14.8653 4.32188 16.3653 3.94863 18.1993 4.02187V2.96836C18.0704 2.9625 17.9473 2.96074 17.8243 2.96016ZM18.3165 6.03516V6.85547H22.8868V6.03516H18.3165ZM17.1504 7.91016C16.5235 8.89453 15.4102 9.53906 14.4786 10.2598C13.459 11.0566 12.6915 11.8359 12.6915 13.0078C12.6915 16.6934 13.377 19.1895 14.0684 21.1523C14.6837 22.8926 15.334 24.2227 15.4747 25.6055H25.7286C25.8692 24.2227 26.5196 22.8926 27.1348 21.1523C27.8262 19.1895 28.5118 16.6934 28.5118 13.0078C28.5118 11.8359 27.7442 11.0566 26.7247 10.2598C25.793 9.53906 24.6797 8.89453 24.0528 7.91016H17.1504ZM5.63736 16.8691C5.47037 16.8691 5.33443 16.916 5.18502 17.0098C4.95826 17.1504 4.71568 17.4199 4.49537 17.7949C4.35181 18.0352 4.22174 18.3105 4.10162 18.6094C4.25865 18.5625 4.4192 18.5332 4.58209 18.5215C4.85806 18.498 5.14166 18.5215 5.42935 18.6094C5.88873 18.75 6.25201 19.0078 6.53912 19.3477C6.60357 19.0312 6.65045 18.7266 6.66217 18.4395C6.67974 18.0059 6.62701 17.6484 6.50982 17.4023C6.39849 17.1621 6.25201 17.0215 5.92974 16.9219C5.85299 16.8984 5.77799 16.8867 5.7106 16.875C5.68541 16.875 5.66139 16.8691 5.63736 16.8691ZM4.76431 19.5645C4.7233 19.5645 4.68228 19.5645 4.64185 19.5703C4.1526 19.6172 3.65748 19.9277 3.17349 20.4434C2.52896 21.1348 1.99283 22.1426 1.75025 22.957C1.50709 23.7715 1.40455 24.9082 1.56744 25.834C1.73033 26.7598 2.10592 27.4043 2.75221 27.5977C3.39732 27.7852 4.06178 27.457 4.70572 26.7715C5.35025 26.0801 5.88287 25.0723 6.12896 24.2578C6.3692 23.4492 6.46295 22.3066 6.29303 21.375C6.1231 20.4434 5.74166 19.8047 5.12877 19.6172C5.00806 19.582 4.88619 19.5645 4.76431 19.5645ZM14.9766 26.6602C14.6368 26.6602 14.4551 26.7656 14.3145 26.9238C14.1797 27.0762 14.0977 27.3047 14.0977 27.5391C14.0977 27.7734 14.1797 28.002 14.3145 28.1543C14.4551 28.3125 14.6368 28.418 14.9766 28.418H26.2266C26.5665 28.418 26.7481 28.3125 26.8887 28.1543C27.0235 28.002 27.1055 27.7734 27.1055 27.5391C27.1055 27.3047 27.0235 27.0762 26.8887 26.9238C26.7481 26.7656 26.5665 26.6602 26.2266 26.6602H14.9766Z" fill="url(#paint0_linear_57_40)"/>
<defs>
<linearGradient id="paint0_linear_57_40" x1="15.0001" y1="1.58203" x2="15.0001" y2="28.418" gradientUnits="userSpaceOnUse">
<stop stop-color="#E9FFF4"/>
<stop offset="0.765" stop-color="#84E4AA"/>
<stop offset="1" stop-color="#50C878"/>
</linearGradient>
</defs>
</svg>
