<svg width="28" height="28" viewBox="0 0 28 28" fill="none" xmlns="http://www.w3.org/2000/svg">
<path d="M19.6016 0.582031C19.1739 0.582031 18.7461 0.641211 18.4766 0.730859C18.3594 0.771289 18.2891 0.815234 18.254 0.839258V3.98047H20.9493V3.39453L20.0704 2.51562L20.9493 1.63672V0.839258C20.9141 0.815234 20.8438 0.771289 20.7266 0.730859C20.4571 0.641211 20.0235 0.582031 19.6016 0.582031ZM16.8243 1.96016C14.9962 1.95078 13.4258 2.35859 12.084 3.08984C10.2911 4.06543 8.92584 5.59766 7.82428 7.40234C6.48834 9.59961 5.53326 12.207 4.70299 14.8262C4.7358 14.8262 4.7692 14.832 4.8026 14.832C4.94732 14.8438 5.08795 14.8672 5.23443 14.9141C5.41021 14.9668 5.57428 15.0371 5.72076 15.1309C6.54693 12.5469 7.47271 10.0156 8.72662 7.95312C9.75787 6.25391 11.0059 4.87695 12.5879 4.01621C13.8653 3.32188 15.3653 2.94863 17.1993 3.02187V1.96836C17.0704 1.9625 16.9473 1.96074 16.8243 1.96016ZM17.3165 5.03516V5.85547H21.8868V5.03516H17.3165ZM16.1504 6.91016C15.5235 7.89453 14.4102 8.53906 13.4786 9.25977C12.459 10.0566 11.6915 10.8359 11.6915 12.0078C11.6915 15.6934 12.377 18.1895 13.0684 20.1523C13.6837 21.8926 14.334 23.2227 14.4747 24.6055H24.7286C24.8692 23.2227 25.5196 21.8926 26.1348 20.1523C26.8262 18.1895 27.5118 15.6934 27.5118 12.0078C27.5118 10.8359 26.7442 10.0566 25.7247 9.25977C24.793 8.53906 23.6797 7.89453 23.0528 6.91016H16.1504ZM4.63736 15.8691C4.47037 15.8691 4.33443 15.916 4.18502 16.0098C3.95826 16.1504 3.71568 16.4199 3.49537 16.7949C3.35181 17.0352 3.22174 17.3105 3.10162 17.6094C3.25865 17.5625 3.4192 17.5332 3.58209 17.5215C3.85806 17.498 4.14166 17.5215 4.42935 17.6094C4.88873 17.75 5.25201 18.0078 5.53912 18.3477C5.60357 18.0312 5.65045 17.7266 5.66217 17.4395C5.67974 17.0059 5.62701 16.6484 5.50982 16.4023C5.39849 16.1621 5.25201 16.0215 4.92974 15.9219C4.85299 15.8984 4.77799 15.8867 4.7106 15.875C4.68541 15.875 4.66139 15.8691 4.63736 15.8691ZM3.76431 18.5645C3.7233 18.5645 3.68228 18.5645 3.64185 18.5703C3.1526 18.6172 2.65748 18.9277 2.17349 19.4434C1.52896 20.1348 0.992831 21.1426 0.750252 21.957C0.507088 22.7715 0.404549 23.9082 0.56744 24.834C0.730331 25.7598 1.10592 26.4043 1.75221 26.5977C2.39732 26.7852 3.06178 26.457 3.70572 25.7715C4.35025 25.0801 4.88287 24.0723 5.12896 23.2578C5.3692 22.4492 5.46295 21.3066 5.29303 20.375C5.1231 19.4434 4.74166 18.8047 4.12877 18.6172C4.00806 18.582 3.88619 18.5645 3.76431 18.5645ZM13.9766 25.6602C13.6368 25.6602 13.4551 25.7656 13.3145 25.9238C13.1797 26.0762 13.0977 26.3047 13.0977 26.5391C13.0977 26.7734 13.1797 27.002 13.3145 27.1543C13.4551 27.3125 13.6368 27.418 13.9766 27.418H25.2266C25.5665 27.418 25.7481 27.3125 25.8887 27.1543C26.0235 27.002 26.1055 26.7734 26.1055 26.5391C26.1055 26.3047 26.0235 26.0762 25.8887 25.9238C25.7481 25.7656 25.5665 25.6602 25.2266 25.6602H13.9766Z" fill="url(#paint0_linear_57_41)"/>
<defs>
<linearGradient id="paint0_linear_57_41" x1="14.0001" y1="0.582031" x2="14.0001" y2="27.418" gradientUnits="userSpaceOnUse">
<stop offset="0.065" stop-color="#B8FFDD"/>
<stop offset="0.673654" stop-color="#50C878"/>
<stop offset="1" stop-color="#00A36C"/>
</linearGradient>
</defs>
</svg>
